<?xml version="1.0" encoding="UTF-8"?>
<svg id="Layer_2" data-name="Layer 2" xmlns="http://www.w3.org/2000/svg" viewBox="0 0 573.15 127.95">
  <defs>
    <style>
      .cls-1 {
        font-family: Poppins-Bold, Poppins;
        font-size: 73px;
      }

      .cls-1, .cls-2 {
        fill: #fff;
      }

      .cls-3 {
        fill: #111613;
      }

      .cls-4 {
        stroke: #e8ae3b;
      }

      .cls-4, .cls-5 {
        fill: none;
        stroke-miterlimit: 10;
        stroke-width: 5px;
      }

      .cls-5 {
        stroke: #df3f1f;
      }
    </style>
  </defs>
  <g id="Layer_2-2" data-name="Layer 2">
    <g>
      <path class="cls-2" d="M188.65,67c-5.79,0-10.5-4.71-10.5-10.5s4.71-10.5,10.5-10.5,10.5,4.71,10.5,10.5-4.71,10.5-10.5,10.5Z"/>
      <path class="cls-3" d="M188.65,48c4.69,0,8.5,3.81,8.5,8.5s-3.81,8.5-8.5,8.5-8.5-3.81-8.5-8.5,3.81-8.5,8.5-8.5m0-4c-6.9,0-12.5,5.6-12.5,12.5s5.6,12.5,12.5,12.5,12.5-5.6,12.5-12.5-5.6-12.5-12.5-12.5h0Z"/>
    </g>
    <g>
      <circle class="cls-2" cx="30.65" cy="12.5" r="10.5"/>
      <path class="cls-3" d="M30.65,4c4.69,0,8.5,3.81,8.5,8.5s-3.81,8.5-8.5,8.5-8.5-3.81-8.5-8.5,3.81-8.5,8.5-8.5m0-4c-6.9,0-12.5,5.6-12.5,12.5s5.6,12.5,12.5,12.5,12.5-5.6,12.5-12.5S37.56,0,30.65,0h0Z"/>
    </g>
    <g>
      <circle class="cls-2" cx="348.65" cy="100.5" r="10.5"/>
      <path class="cls-3" d="M348.65,92c4.69,0,8.5,3.81,8.5,8.5s-3.81,8.5-8.5,8.5-8.5-3.81-8.5-8.5,3.81-8.5,8.5-8.5m0-4c-6.9,0-12.5,5.6-12.5,12.5s5.6,12.5,12.5,12.5,12.5-5.6,12.5-12.5-5.6-12.5-12.5-12.5h0Z"/>
    </g>
    <text class="cls-1" transform="translate(0 83.71)"><tspan x="0" y="0">JAM</tspan></text>
    <text class="cls-1" transform="translate(215 83.71)"><tspan x="0" y="0">BRUSSELS</tspan></text>
    <path class="cls-5" d="M198.71,49.1l14.31-14.31c1.94-1.94,1.94-5.13,0-7.07l-11.23-11.23c-1.94-1.94-5.79-3.54-8.54-3.54H42.15"/>
    <path class="cls-4" d="M180,64.5l-14.31,14.31c-1.94,1.94-1.94,5.13,0,7.07l11.23,11.23c1.94,1.94,5.79,3.54,8.54,3.54h151.11"/>
  </g>
</svg>