<?xml version="1.0" encoding="utf-8"?>
<!-- Generator: Adobe Illustrator 27.2.0, SVG Export Plug-In . SVG Version: 6.00 Build 0)  -->
<svg version="1.1" id="Layer_2_00000148637346090264716270000011811328237414935988_"
	 xmlns="http://www.w3.org/2000/svg" xmlns:xlink="http://www.w3.org/1999/xlink" x="0px" y="0px" viewBox="0 0 573.2 127.9"
	 style="enable-background:new 0 0 573.2 127.9;" xml:space="preserve">
<style type="text/css">
	.st0{fill:#FFFFFF;}
	.st1{fill:#111613;}
	.st2{enable-background:new    ;}
	.st3{fill:none;stroke:#DF3F1F;stroke-width:5;stroke-miterlimit:10;}
	.st4{fill:none;stroke:#E8AE3B;stroke-width:5;stroke-miterlimit:10;}
</style>
<g id="Layer_5">
	<g>
		<circle class="st0" cx="188.6" cy="56.5" r="10.5"/>
		<path class="st1" d="M188.6,48c4.7,0,8.5,3.8,8.5,8.5s-3.8,8.5-8.5,8.5s-8.5-3.8-8.5-8.5S184,48,188.6,48 M188.6,44
			c-6.9,0-12.5,5.6-12.5,12.5S181.8,69,188.6,69s12.5-5.6,12.5-12.5S195.5,44,188.6,44L188.6,44z"/>
	</g>
	<g>
		<circle class="st0" cx="30.6" cy="12.5" r="10.5"/>
		<path class="st1" d="M30.6,4c4.7,0,8.5,3.8,8.5,8.5S35.3,21,30.7,21s-8.5-3.8-8.5-8.5S26,4,30.6,4 M30.7,0
			c-6.9,0-12.5,5.6-12.5,12.5S23.8,25,30.7,25s12.5-5.6,12.5-12.5S37.6,0,30.7,0C30.6,0,30.6,0,30.7,0z"/>
	</g>
	<g>
		<circle class="st0" cx="348.6" cy="100.5" r="10.5"/>
		<path class="st1" d="M348.6,92c4.7,0,8.5,3.8,8.5,8.5s-3.8,8.5-8.5,8.5s-8.5-3.8-8.5-8.5S344,92,348.6,92 M348.6,88
			c-6.9,0-12.5,5.6-12.5,12.5s5.6,12.5,12.5,12.5s12.5-5.6,12.5-12.5S355.5,88,348.6,88L348.6,88z"/>
	</g>
	<g class="st2">
		<path class="st1" d="M36.6,32.5v34.9c0,5.4-1.5,9.6-4.6,12.5c-3,2.9-7.1,4.4-12.3,4.4c-5.4,0-9.7-1.5-13-4.6
			c-3.3-3.1-4.9-7.4-4.9-13.1h12.4c0,2.1,0.4,3.8,1.3,4.9c0.9,1.1,2.1,1.6,3.8,1.6c1.5,0,2.7-0.5,3.5-1.5c0.8-1,1.2-2.4,1.2-4.2
			V32.5H36.6z"/>
		<path class="st1" d="M78.6,74.7H59.5l-3.1,9.1H43.4l18.5-51.2h14.5l18.5,51.2H81.7L78.6,74.7z M75.4,65l-6.4-18.8L62.8,65H75.4z"
			/>
		<path class="st1" d="M158.6,32.5v51.2h-12.5V53l-11.5,30.7h-10.1L113,52.9v30.8h-12.5V32.5h14.7l14.4,35.5l14.2-35.5H158.6z"/>
	</g>
	<g class="st2">
		<path class="st1" d="M257.7,61.8c1.8,2.3,2.7,5,2.7,7.9c0,4.3-1.5,7.7-4.5,10.2c-3,2.5-7.2,3.8-12.5,3.8h-23.9V32.5h23.1
			c5.2,0,9.3,1.2,12.2,3.6c2.9,2.4,4.4,5.6,4.4,9.7c0,3-0.8,5.5-2.4,7.5c-1.6,2-3.7,3.4-6.3,4.2C253.5,58.1,255.9,59.5,257.7,61.8z
			 M232,53.2h8.2c2,0,3.6-0.5,4.7-1.4c1.1-0.9,1.6-2.2,1.6-4s-0.5-3.1-1.6-4c-1.1-0.9-2.7-1.4-4.7-1.4H232V53.2z M246.1,72.2
			c1.1-0.9,1.7-2.3,1.7-4.1c0-1.8-0.6-3.2-1.8-4.2c-1.2-1-2.8-1.5-4.9-1.5H232v11.3h9.2C243.3,73.6,244.9,73.2,246.1,72.2z"/>
		<path class="st1" d="M293.8,83.7l-10.7-19.3h-3v19.3h-12.5V32.5h21c4,0,7.5,0.7,10.3,2.1c2.8,1.4,5,3.3,6.4,5.8
			c1.4,2.5,2.1,5.2,2.1,8.2c0,3.4-1,6.4-2.9,9.1c-1.9,2.7-4.8,4.6-8.5,5.7l11.8,20.3H293.8z M280.1,55.5h7.7c2.3,0,4-0.6,5.1-1.7
			c1.1-1.1,1.7-2.7,1.7-4.7c0-1.9-0.6-3.5-1.7-4.6c-1.1-1.1-2.9-1.7-5.1-1.7h-7.7V55.5z"/>
		<path class="st1" d="M327.5,32.5v30.7c0,3.1,0.8,5.4,2.3,7.1c1.5,1.7,3.7,2.5,6.6,2.5s5.2-0.8,6.7-2.5c1.6-1.7,2.3-4,2.3-7.1V32.5
			h12.5v30.6c0,4.6-1,8.4-2.9,11.6c-1.9,3.2-4.6,5.5-7.8,7.2c-3.3,1.6-6.9,2.4-11,2.4c-4,0-7.7-0.8-10.8-2.4c-3.2-1.6-5.7-4-7.6-7.2
			c-1.8-3.2-2.8-7.1-2.8-11.6V32.5H327.5z"/>
		<path class="st1" d="M375.2,82.4c-3-1.2-5.3-3-7.1-5.4c-1.8-2.4-2.7-5.3-2.8-8.6h13.3c0.2,1.9,0.9,3.3,2,4.3
			c1.1,1,2.6,1.5,4.4,1.5c1.8,0,3.3-0.4,4.4-1.3c1.1-0.9,1.6-2,1.6-3.5c0-1.3-0.4-2.3-1.3-3.1c-0.9-0.8-1.9-1.5-3.1-2
			c-1.2-0.5-3-1.1-5.3-1.8c-3.3-1-6-2-8.1-3.1c-2.1-1-3.9-2.5-5.4-4.5c-1.5-2-2.3-4.6-2.3-7.8c0-4.8,1.7-8.5,5.2-11.2
			s8-4.1,13.5-4.1c5.6,0,10.2,1.3,13.7,4.1c3.5,2.7,5.3,6.5,5.5,11.3h-13.5c-0.1-1.7-0.7-3-1.8-3.9c-1.1-0.9-2.6-1.4-4.3-1.4
			c-1.5,0-2.7,0.4-3.6,1.2c-0.9,0.8-1.4,2-1.4,3.5c0,1.7,0.8,2.9,2.3,3.9c1.6,0.9,4,1.9,7.3,3c3.3,1.1,6,2.2,8.1,3.2
			c2.1,1,3.9,2.5,5.4,4.5c1.5,1.9,2.3,4.5,2.3,7.5c0,2.9-0.7,5.6-2.2,8c-1.5,2.4-3.6,4.3-6.5,5.7c-2.8,1.4-6.2,2.1-10,2.1
			C381.5,84.2,378.1,83.6,375.2,82.4z"/>
		<path class="st1" d="M420.1,82.4c-3-1.2-5.3-3-7.1-5.4c-1.8-2.4-2.7-5.3-2.8-8.6h13.3c0.2,1.9,0.9,3.3,2,4.3
			c1.1,1,2.6,1.5,4.4,1.5c1.8,0,3.3-0.4,4.4-1.3c1.1-0.9,1.6-2,1.6-3.5c0-1.3-0.4-2.3-1.3-3.1c-0.9-0.8-1.9-1.5-3.1-2
			c-1.2-0.5-3-1.1-5.3-1.8c-3.3-1-6-2-8.1-3.1c-2.1-1-3.9-2.5-5.4-4.5c-1.5-2-2.3-4.6-2.3-7.8c0-4.8,1.7-8.5,5.2-11.2
			s8-4.1,13.5-4.1c5.6,0,10.2,1.3,13.7,4.1c3.5,2.7,5.3,6.5,5.5,11.3h-13.5c-0.1-1.7-0.7-3-1.8-3.9c-1.1-0.9-2.6-1.4-4.3-1.4
			c-1.5,0-2.7,0.4-3.6,1.2c-0.9,0.8-1.4,2-1.4,3.5c0,1.7,0.8,2.9,2.3,3.9c1.6,0.9,4,1.9,7.3,3c3.3,1.1,6,2.2,8.1,3.2
			c2.1,1,3.9,2.5,5.4,4.5c1.5,1.9,2.3,4.5,2.3,7.5c0,2.9-0.7,5.6-2.2,8c-1.5,2.4-3.6,4.3-6.5,5.7c-2.8,1.4-6.2,2.1-10,2.1
			C426.4,84.2,423,83.6,420.1,82.4z"/>
		<path class="st1" d="M469,42.5v10.4h16.7v9.6H469v11.2h18.9v10h-31.4V32.5h31.4v10H469z"/>
		<path class="st1" d="M508.5,74.1h16.4v9.6H496V32.5h12.5V74.1z"/>
		<path class="st1" d="M539.3,82.4c-3-1.2-5.3-3-7.1-5.4c-1.8-2.4-2.7-5.3-2.8-8.6h13.3c0.2,1.9,0.9,3.3,2,4.3
			c1.1,1,2.6,1.5,4.4,1.5c1.8,0,3.3-0.4,4.4-1.3c1.1-0.9,1.6-2,1.6-3.5c0-1.3-0.4-2.3-1.3-3.1c-0.9-0.8-1.9-1.5-3.1-2
			c-1.2-0.5-3-1.1-5.3-1.8c-3.3-1-6-2-8.1-3.1c-2.1-1-3.9-2.5-5.4-4.5c-1.5-2-2.3-4.6-2.3-7.8c0-4.8,1.7-8.5,5.2-11.2
			c3.5-2.7,8-4.1,13.5-4.1c5.6,0,10.2,1.3,13.7,4.1c3.5,2.7,5.3,6.5,5.5,11.3h-13.5c-0.1-1.7-0.7-3-1.8-3.9
			c-1.1-0.9-2.6-1.4-4.3-1.4c-1.5,0-2.7,0.4-3.6,1.2c-0.9,0.8-1.4,2-1.4,3.5c0,1.7,0.8,2.9,2.3,3.9c1.6,0.9,4,1.9,7.3,3
			c3.3,1.1,6,2.2,8.1,3.2c2.1,1,3.9,2.5,5.4,4.5c1.5,1.9,2.3,4.5,2.3,7.5c0,2.9-0.7,5.6-2.2,8c-1.5,2.4-3.6,4.3-6.5,5.7
			c-2.8,1.4-6.2,2.1-10,2.1C545.6,84.2,542.2,83.6,539.3,82.4z"/>
	</g>
	<path class="st3" d="M198.7,49.1L213,34.8c1.9-1.9,1.9-5.1,0-7.1l-11.2-11.2c-1.9-1.9-5.8-3.5-8.5-3.5H42.2"/>
	<path class="st4" d="M180,64.5l-14.3,14.3c-1.9,1.9-1.9,5.1,0,7.1l11.2,11.2c1.9,1.9,5.8,3.5,8.5,3.5h151.1"/>
</g>
</svg>
