<svg width="139" height="139" viewBox="0 0 139 139" fill="none" xmlns="http://www.w3.org/2000/svg">
<path d="M69.2896 0.5C87.5337 0.5 105.031 7.74745 117.931 20.648C130.832 33.5486 138.079 51.0455 138.079 69.2896C138.079 87.5337 130.832 105.031 117.931 117.931C105.031 130.832 87.5337 138.079 69.2896 138.079C51.0455 138.079 33.5486 130.832 20.648 117.931C7.74745 105.031 0.5 87.5337 0.5 69.2896C0.5 51.0455 7.74745 33.5486 20.648 20.648C33.5486 7.74745 51.0455 0.5 69.2896 0.5ZM8.78707 69.2896C8.78707 102.651 35.9286 129.792 69.2896 129.792C102.651 129.792 129.792 102.651 129.792 69.2896C129.792 35.9281 102.651 8.78707 69.2896 8.78707C35.9281 8.78707 8.78707 35.9281 8.78707 69.2896Z" fill="white" stroke="white"/>
<path d="M58.4941 84.1709L58.8476 84.5244L59.2012 84.1709L100.892 42.4803L106.752 48.34L58.8476 96.244L31.6822 69.0786L37.5419 63.219L58.4941 84.1709Z" fill="white" stroke="white"/>
</svg>
